<?xml version="1.0" encoding="UTF-8"?>
<svg id="Calque_1" data-name="Calque 1" xmlns="http://www.w3.org/2000/svg" viewBox="0 0 231.92 163">
  <defs>
    <style>
      .cls-1 {
        fill: #f5b1b5;
      }

      .cls-2 {
        fill: #fff;
      }

      .cls-3 {
        fill: #e53212;
      }

      .cls-4 {
        fill: #a71815;
      }

      .cls-5 {
        fill: #1d1d1b;
      }
    </style>
  </defs>
  <path class="cls-4" d="M83.62,148.65c-19.13,19.13-50.14,19.13-69.27,0-19.13-19.13-19.13-50.14,0-69.27,19.13-19.13,50.14-19.13,69.27,0,19.13,19.13,19.13,50.14,0,69.27"/>
  <path class="cls-1" d="M83.62,83.62c-19.13,19.13-50.14,19.13-69.27,0C-4.78,64.49-4.78,33.47,14.35,14.35c19.13-19.13,50.14-19.13,69.27,0,19.13,19.13,19.13,50.14,0,69.27"/>
  <path class="cls-3" d="M14.35,79.38c-.69,.69-1.35,1.4-1.99,2.12,.64,.72,1.3,1.43,1.99,2.12,19.13,19.13,50.14,19.13,69.27,0,.69-.69,1.35-1.4,1.99-2.12-.64-.72-1.3-1.43-1.99-2.12-19.13-19.13-50.14-19.13-69.27,0"/>
  <path class="cls-2" d="M57.17,73.31c4.52,4.52,4.52,11.86,0,16.38-4.52,4.52-11.86,4.52-16.38,0-4.52-4.52-4.52-11.86,0-16.38,4.52-4.52,11.86-4.52,16.38,0"/>
  <path class="cls-5" d="M127.5,57.74h5.83l-2.91-7.82-2.91,7.82Zm6.96,2.99h-8.09l-1.78,4.8h-3.43l7.45-19.13h3.75l7.45,19.13h-3.53l-1.81-4.8Z"/>
  <path class="cls-5" d="M142.01,65.54v-13.14h2.99v1.67c.75-1.35,2.4-2.05,3.88-2.05,1.73,0,3.24,.78,3.94,2.32,1.03-1.73,2.56-2.32,4.26-2.32,2.37,0,4.64,1.51,4.64,4.99v8.52h-3.02v-8.01c0-1.54-.78-2.7-2.54-2.7-1.65,0-2.72,1.29-2.72,2.91v7.8h-3.08v-8.01c0-1.51-.75-2.7-2.54-2.7-1.67,0-2.73,1.24-2.73,2.91v7.8h-3.1Z"/>
  <path class="cls-5" d="M165.56,52.4h3.1v13.14h-3.1v-13.14Zm1.54-6.66c1.13,0,2.05,.92,2.05,2.05s-.92,2.02-2.05,2.02-2.02-.89-2.02-2.02,.92-2.05,2.02-2.05"/>
  <path class="cls-5" d="M174.27,61.22c.11,1.19,1,2.24,2.67,2.24,1.29,0,1.97-.7,1.97-1.51,0-.7-.49-1.24-1.54-1.46l-1.94-.43c-2.32-.51-3.53-2.02-3.53-3.83,0-2.29,2.1-4.24,4.83-4.24,3.67,0,4.86,2.37,5.07,3.67l-2.64,.75c-.11-.75-.68-1.97-2.43-1.97-1.11,0-1.89,.7-1.89,1.51,0,.7,.51,1.21,1.32,1.38l2,.4c2.48,.54,3.78,2.05,3.78,3.99s-1.62,4.21-4.96,4.21c-3.8,0-5.26-2.48-5.42-3.97l2.72-.75Z"/>
  <path class="cls-5" d="M128.55,88.65c2.05,0,3.48-1.7,3.48-4.21s-1.4-4.07-3.45-4.07-3.56,1.59-3.56,4.1,1.4,4.18,3.53,4.18m6.5,.03c0,1.19,.11,2.18,.13,2.4h-2.99c-.05-.3-.14-1.16-.14-1.7-.62,1.11-2,2.02-3.86,2.02-3.78,0-6.31-2.97-6.31-6.93s2.56-6.88,6.26-6.88c2.29,0,3.45,1.05,3.86,1.89v-7.93h3.05v17.13Z"/>
  <path class="cls-5" d="M147.78,83.06c-.05-1.54-1.08-2.91-3.24-2.91-1.97,0-3.1,1.51-3.21,2.91h6.45Zm2.99,4.26c-.7,2.29-2.78,4.15-5.93,4.15-3.56,0-6.72-2.59-6.72-7.04,0-4.15,3.08-6.91,6.39-6.91,4.05,0,6.42,2.67,6.42,6.83,0,.51-.05,.94-.08,1h-9.6c.08,2,1.65,3.43,3.59,3.43s2.86-1,3.29-2.29l2.64,.84Z"/>
  <path class="cls-5" d="M155.5,86.76c.11,1.19,1,2.24,2.67,2.24,1.29,0,1.97-.7,1.97-1.51,0-.7-.49-1.24-1.54-1.46l-1.94-.43c-2.32-.51-3.53-2.02-3.53-3.83,0-2.29,2.1-4.24,4.83-4.24,3.67,0,4.86,2.37,5.07,3.67l-2.64,.75c-.11-.75-.68-1.97-2.43-1.97-1.11,0-1.89,.7-1.89,1.51,0,.7,.51,1.21,1.32,1.38l2,.4c2.48,.54,3.78,2.05,3.78,3.99s-1.62,4.21-4.96,4.21c-3.8,0-5.26-2.48-5.42-3.97l2.72-.75Z"/>
  <path class="cls-5" d="M127.5,108.82h5.83l-2.91-7.82-2.91,7.82Zm6.96,2.99h-8.09l-1.78,4.8h-3.43l7.45-19.13h3.75l7.45,19.13h-3.53l-1.81-4.8Z"/>
  <polygon class="cls-5" points="147.81 116.61 144.68 116.61 139.34 103.47 142.79 103.47 146.27 112.86 149.67 103.47 152.96 103.47 147.81 116.61"/>
  <path class="cls-5" d="M163.48,108.6c-.05-1.54-1.08-2.91-3.24-2.91-1.97,0-3.1,1.51-3.21,2.91h6.45Zm2.99,4.26c-.7,2.29-2.78,4.15-5.93,4.15-3.56,0-6.72-2.59-6.72-7.04,0-4.15,3.07-6.91,6.39-6.91,4.05,0,6.42,2.67,6.42,6.83,0,.51-.05,.94-.08,1h-9.6c.08,2,1.65,3.43,3.59,3.43s2.86-1,3.29-2.29l2.64,.84Z"/>
  <path class="cls-5" d="M174.19,116.99c-3.13,0-4.96-2.32-4.96-5.23v-8.28h3.13v7.71c0,1.62,.75,2.99,2.64,2.99s2.75-1.21,2.75-2.94v-7.77h3.13v10.74c0,1.08,.08,1.92,.13,2.4h-2.99c-.05-.3-.11-.92-.11-1.46-.65,1.19-2.18,1.83-3.72,1.83"/>
  <path class="cls-5" d="M193.88,109.63c0-2.24-1.43-3.7-3.37-3.7s-3.43,1.46-3.43,3.7,1.38,3.72,3.43,3.72,3.37-1.46,3.37-3.72m-7.09,6.96c.22,1.62,1.48,2.83,3.29,2.83,2.48,0,3.72-1.27,3.72-3.94v-1.38c-.57,1.03-1.89,1.91-3.8,1.91-3.51,0-6.07-2.7-6.07-6.39s2.45-6.39,6.07-6.39c2.05,0,3.32,.84,3.88,1.91v-1.67h3.02v11.9c0,3.51-1.81,6.77-6.74,6.77-3.48,0-5.91-2.16-6.26-4.8l2.89-.75Z"/>
  <rect class="cls-5" x="200.74" y="97.08" width="3.13" height="19.53"/>
  <path class="cls-5" d="M216.54,108.6c-.05-1.54-1.08-2.91-3.24-2.91-1.97,0-3.1,1.51-3.21,2.91h6.45Zm2.99,4.26c-.7,2.29-2.78,4.15-5.93,4.15-3.56,0-6.72-2.59-6.72-7.04,0-4.15,3.07-6.91,6.39-6.91,4.05,0,6.42,2.67,6.42,6.83,0,.51-.05,.94-.08,1h-9.6c.08,2,1.65,3.43,3.59,3.43s2.86-1,3.29-2.29l2.64,.84Z"/>
  <path class="cls-5" d="M224.26,112.3c.11,1.19,1,2.24,2.67,2.24,1.29,0,1.97-.7,1.97-1.51,0-.7-.49-1.24-1.54-1.46l-1.94-.43c-2.32-.51-3.53-2.02-3.53-3.83,0-2.29,2.1-4.24,4.83-4.24,3.67,0,4.86,2.37,5.07,3.67l-2.64,.75c-.11-.75-.68-1.97-2.43-1.97-1.11,0-1.89,.7-1.89,1.51,0,.7,.51,1.21,1.32,1.38l2,.4c2.48,.54,3.78,2.05,3.78,3.99s-1.62,4.21-4.96,4.21c-3.8,0-5.26-2.48-5.42-3.97l2.72-.75Z"/>
</svg>