<?xml version="1.0" encoding="UTF-8" standalone="no"?>
<svg
   id="Calque_1"
   data-name="Calque 1"
   viewBox="0 0 97.964997 162.995"
   version="1.1"
   sodipodi:docname="favicon.svg"
   width="97.964996"
   height="162.995"
   inkscape:version="1.2.2 (732a01da63, 2022-12-09)"
   xmlns:inkscape="http://www.inkscape.org/namespaces/inkscape"
   xmlns:sodipodi="http://sodipodi.sourceforge.net/DTD/sodipodi-0.dtd"
   xmlns="http://www.w3.org/2000/svg"
   xmlns:svg="http://www.w3.org/2000/svg">
  <sodipodi:namedview
     id="namedview45"
     pagecolor="#505050"
     bordercolor="#eeeeee"
     borderopacity="1"
     inkscape:showpageshadow="0"
     inkscape:pageopacity="0"
     inkscape:pagecheckerboard="0"
     inkscape:deskcolor="#505050"
     showgrid="false"
     inkscape:zoom="2.8957055"
     inkscape:cx="-6.9067797"
     inkscape:cy="80.981992"
     inkscape:window-width="1920"
     inkscape:window-height="991"
     inkscape:window-x="-9"
     inkscape:window-y="-9"
     inkscape:window-maximized="1"
     inkscape:current-layer="Calque_1" />
  <defs
     id="defs4">
    <style
       id="style2">
      .cls-1 {
        fill: #f5b1b5;
      }

      .cls-2 {
        fill: #fff;
      }

      .cls-3 {
        fill: #e53212;
      }

      .cls-4 {
        fill: #a71815;
      }

      .cls-5 {
        fill: #1d1d1b;
      }
    </style>
  </defs>
  <path
     class="cls-4"
     d="m 83.6175,148.6475 c -19.13,19.13 -50.14,19.13 -69.27,0 -19.13,-19.13 -19.13,-50.14 0,-69.27 19.13,-19.13 50.14,-19.13 69.27,0 19.13,19.13 19.13,50.14 0,69.27"
     id="path6" />
  <path
     class="cls-1"
     d="m 83.6175,83.6175 c -19.13,19.13 -50.14,19.13 -69.27,0 -19.13,-19.13 -19.13,-50.15 0,-69.27 19.13,-19.13 50.14,-19.13 69.27,0 19.13,19.13 19.13,50.14 0,69.27"
     id="path8" />
  <path
     class="cls-3"
     d="m 14.3475,79.3775 c -0.69,0.69 -1.35,1.4 -1.99,2.12 0.64,0.72 1.3,1.43 1.99,2.12 19.13,19.13 50.14,19.13 69.27,0 0.69,-0.69 1.35,-1.4 1.99,-2.12 -0.64,-0.72 -1.3,-1.43 -1.99,-2.12 -19.13,-19.13 -50.14,-19.13 -69.27,0"
     id="path10" />
  <path
     class="cls-2"
     d="m 57.1675,73.3075 c 4.52,4.52 4.52,11.86 0,16.38 -4.52,4.52 -11.86,4.52 -16.38,0 -4.52,-4.52 -4.52,-11.86 0,-16.38 4.52,-4.52 11.86,-4.52 16.38,0"
     id="path12" />
</svg>
